<svg width="35" height="39" viewBox="0 0 35 39" fill="none" xmlns="http://www.w3.org/2000/svg">
<path d="M34.3627 18.8464C34.3627 23.6126 34.3627 28.3907 34.3627 33.1569C34.3627 34.0224 34.1849 34.8405 33.7462 35.5875C32.9163 37.0221 31.6832 37.8639 30.0233 38.018C28.0315 38.1959 26.6087 37.2829 25.6009 35.6349C25.1385 34.888 24.9607 34.0462 24.9607 33.1688C24.9607 23.7431 24.9607 14.3173 24.9607 4.89158C24.9607 2.49661 26.7154 0.409904 29.0867 0.0542158C30.3909 -0.147341 31.5765 0.220204 32.608 1.03829C33.6039 1.83266 34.1849 2.87601 34.3627 4.13277C34.3746 4.21577 34.3746 4.29876 34.3746 4.39361C34.3627 9.21912 34.3627 14.0328 34.3627 18.8464Z" fill="#F8AB06"></path>
<path d="M21.8293 26.3043C21.8293 28.6163 21.8174 30.9282 21.8293 33.2402C21.8411 34.4733 21.4262 35.5403 20.6199 36.4533C19.8374 37.3543 18.8296 37.8879 17.644 38.0183C15.747 38.2317 14.3124 37.4729 13.3402 35.8367C12.8541 35.0305 12.6169 34.1294 12.4984 33.1928C12.4391 32.6948 12.4272 32.1969 12.4272 31.6989C12.4272 27.5611 12.4272 23.4114 12.4272 19.2735C12.4272 17.9101 12.9252 16.7363 13.8974 15.7759C14.8341 14.8393 15.9841 14.3295 17.3239 14.365C18.391 14.3887 19.3157 14.7919 20.122 15.4677C21.023 16.2383 21.5684 17.2224 21.77 18.3843C21.8174 18.6451 21.8174 18.906 21.8174 19.1668C21.8293 21.5499 21.8293 23.933 21.8293 26.3043Z" fill="#E3740B"></path>
<path d="M0.00174699 33.2755C-0.0693907 30.8094 2.04103 28.6516 4.68498 28.6397C7.26964 28.6278 9.38006 30.7383 9.39192 33.3348C9.39192 35.9313 7.29336 38.0654 4.69683 38.0536C1.96989 38.0299 -0.0575344 35.7772 0.00174699 33.2755Z" fill="#E3740B"></path>
</svg>