<svg width="37" height="41" viewBox="0 0 37 41" fill="none" xmlns="http://www.w3.org/2000/svg">
<path d="M24.936 10.3324C24.936 9.66159 24.9083 8.99077 24.9499 8.31994C24.9638 7.90402 24.8389 7.62227 24.4783 7.34052C23.3271 6.44161 22.9526 4.89871 23.5212 3.61071C24.1177 2.25564 25.477 1.49089 27.0304 1.62506C28.4175 1.74581 29.6519 2.83255 29.9155 4.21446C30.1651 5.50245 29.749 6.60261 28.681 7.42102C28.4175 7.62227 28.3065 7.82352 28.3204 8.1321C28.3342 9.56768 28.3342 11.0167 28.3204 12.4522C28.3065 12.8816 28.4868 13.0157 28.8891 13.1097C33.0502 14.0354 36.1016 17.3627 36.601 21.4682C37.2251 26.5665 33.3276 31.4099 28.0846 32.0941C26.0734 32.3491 24.1454 32.1076 22.3284 31.2489C22.0371 31.1147 21.8429 31.1281 21.6071 31.3562C20.012 32.8991 18.417 34.4286 16.8219 35.9447C16.6277 36.1325 16.6554 36.3204 16.6832 36.535C16.8912 38.6817 15.31 40.3051 13.1185 40.2112C11.4124 40.1441 10.0254 38.6817 10.0254 36.9644C10.0254 35.2605 11.4402 33.731 13.1601 33.7846C14.0755 33.8249 14.6581 33.5163 15.2407 32.8991C16.4196 31.6782 17.6541 30.4976 18.8747 29.3169C19.1382 29.062 19.1521 28.901 18.9163 28.6058C16.0174 25.0504 15.8926 20.623 18.5557 16.8529C18.7637 16.5577 18.7221 16.4101 18.4447 16.2089C14.561 13.3914 10.6773 10.5605 6.79362 7.72961C6.53008 7.54177 6.32203 7.55519 6.04462 7.67594C4.4634 8.36019 2.96541 8.22602 1.60611 7.17953C0.21908 6.14645 -0.280251 4.72429 0.149729 3.07405C0.565839 1.43722 1.71708 0.430979 3.42313 0.082148C5.91979 -0.427682 8.37484 1.50431 8.3471 3.97296C8.33323 4.63037 8.58289 4.99262 9.09609 5.36829C13.0491 8.2126 16.9883 11.0972 20.9136 13.9683C21.2465 14.2098 21.4962 14.2635 21.8707 14.0488C22.6613 13.5927 23.5212 13.2707 24.4367 13.1097C24.8389 13.0426 24.936 12.8547 24.936 12.4925C24.9221 11.768 24.936 11.0569 24.936 10.3324ZM26.6421 27.3447C29.3329 27.3178 31.566 25.1578 31.5799 22.5684C31.5938 19.979 29.2913 17.7518 26.6143 17.7652C23.9235 17.792 21.6904 19.9521 21.6765 22.5415C21.6626 25.1309 23.9651 27.3581 26.6421 27.3447Z" fill="url(#paint0_linear_2309_3244)"></path>
<defs>
<linearGradient id="paint0_linear_2309_3244" x1="18.3333" y1="0" x2="18.3333" y2="40.2151" gradientUnits="userSpaceOnUse">
<stop stop-color="#F13412"></stop>
<stop offset="1" stop-color="#F5A719"></stop>
</linearGradient>
</defs>
</svg>