<svg width="40" height="40" viewBox="0 0 40 40" fill="none" xmlns="http://www.w3.org/2000/svg">
<path d="M19.9341 0C11.6145 0 9.18136 0.00858493 8.7084 0.0478303C7.00108 0.189788 5.93867 0.45868 4.78125 1.0351C3.88927 1.47814 3.18581 1.9917 2.49154 2.71161C1.22714 4.02449 0.460837 5.63968 0.183436 7.55964C0.0485666 8.49172 0.00933186 8.68181 0.00136232 13.4428C-0.00170289 15.0298 0.00136232 17.1183 0.00136232 19.9198C0.00136232 28.2349 0.0105579 30.6663 0.0504057 31.1384C0.18834 32.8002 0.448883 33.8458 1.00062 34.9894C2.05505 37.1786 4.0689 38.822 6.44137 39.4352C7.26284 39.6467 8.17015 39.7632 9.33493 39.8184C9.82842 39.8399 14.8584 39.8552 19.8915 39.8552C24.9246 39.8552 29.9577 39.8491 30.4389 39.8246C31.7876 39.7611 32.5707 39.6559 33.4367 39.4321C34.613 39.1303 35.7094 38.5754 36.6491 37.8059C37.5888 37.0364 38.3493 36.071 38.8774 34.9771C39.4184 33.8611 39.6928 32.7757 39.8169 31.2007C39.8439 30.8573 39.8552 25.3823 39.8552 19.9146C39.8552 14.446 39.843 8.98106 39.816 8.63766C39.6903 7.03719 39.416 5.96101 38.8575 4.8235C38.3992 3.89234 37.8904 3.19697 37.1517 2.48595C35.8337 1.22642 34.2214 0.459907 32.2998 0.182736C31.3689 0.0481369 31.1834 0.00827832 26.4201 0H19.9341Z" fill="url(#paint0_radial_2308_3149)"></path>
<path d="M19.9341 0C11.6145 0 9.18136 0.00858493 8.7084 0.0478303C7.00108 0.189788 5.93867 0.45868 4.78125 1.0351C3.88927 1.47814 3.18581 1.9917 2.49154 2.71161C1.22714 4.02449 0.460837 5.63968 0.183436 7.55964C0.0485666 8.49172 0.00933186 8.68181 0.00136232 13.4428C-0.00170289 15.0298 0.00136232 17.1183 0.00136232 19.9198C0.00136232 28.2349 0.0105579 30.6663 0.0504057 31.1384C0.18834 32.8002 0.448883 33.8458 1.00062 34.9894C2.05505 37.1786 4.0689 38.822 6.44137 39.4352C7.26284 39.6467 8.17015 39.7632 9.33493 39.8184C9.82842 39.8399 14.8584 39.8552 19.8915 39.8552C24.9246 39.8552 29.9577 39.8491 30.4389 39.8246C31.7876 39.7611 32.5707 39.6559 33.4367 39.4321C34.613 39.1303 35.7094 38.5754 36.6491 37.8059C37.5888 37.0364 38.3493 36.071 38.8774 34.9771C39.4184 33.8611 39.6928 32.7757 39.8169 31.2007C39.8439 30.8573 39.8552 25.3823 39.8552 19.9146C39.8552 14.446 39.843 8.98106 39.816 8.63766C39.6903 7.03719 39.416 5.96101 38.8575 4.8235C38.3992 3.89234 37.8904 3.19697 37.1517 2.48595C35.8337 1.22642 34.2214 0.459907 32.2998 0.182736C31.3689 0.0481369 31.1834 0.00827832 26.4201 0H19.9341Z" fill="url(#paint1_radial_2308_3149)"></path>
<path d="M19.4303 5.97754C15.5065 5.97754 15.0141 5.9941 13.473 6.06182C11.9349 6.12982 10.8851 6.36492 9.96643 6.70988C9.0162 7.06617 8.21014 7.54277 7.40709 8.31841C6.60344 9.09376 6.10981 9.87202 5.73959 10.7892C5.38141 11.6764 5.1376 12.6904 5.06838 14.1748C4.99975 15.6627 4.98169 16.1385 4.98169 19.9269C4.98169 23.7153 4.99915 24.1893 5.06898 25.6772C5.13971 27.1622 5.38321 28.1759 5.74019 29.0628C6.10951 29.9803 6.60314 30.7585 7.40649 31.5339C8.20924 32.3098 9.0153 32.7876 9.96493 33.1439C10.8842 33.4888 11.9343 33.7239 13.4721 33.7919C15.0132 33.8596 15.5053 33.8762 19.4288 33.8762C23.3528 33.8762 23.8437 33.8596 25.3848 33.7919C26.9229 33.7239 27.9739 33.4888 28.8932 33.1439C29.8431 32.7876 30.648 32.3098 31.4507 31.5339C32.2544 30.7585 32.748 29.9803 33.1182 29.0631C33.4734 28.1759 33.7172 27.1619 33.7894 25.6775C33.8587 24.1895 33.8767 23.7153 33.8767 19.9269C33.8767 16.1385 33.8587 15.663 33.7894 14.1751C33.7172 12.6901 33.4734 11.6764 33.1182 10.7895C32.748 9.87202 32.2544 9.09376 31.4507 8.31841C30.6471 7.54248 29.8434 7.06588 28.8923 6.70988C27.9712 6.36492 26.9208 6.12982 25.3827 6.06182C23.8416 5.9941 23.351 5.97754 19.426 5.97754H19.4303ZM18.1342 8.49132C18.5189 8.49074 18.9481 8.49132 19.4303 8.49132C23.2878 8.49132 23.745 8.50469 25.2683 8.57153C26.677 8.63372 27.4415 8.86098 27.9508 9.05191C28.625 9.30474 29.1057 9.60698 29.611 10.0952C30.1167 10.5834 30.4297 11.0484 30.6922 11.6994C30.89 12.1905 31.1256 12.9287 31.1898 14.2887C31.259 15.7592 31.274 16.2009 31.274 19.9237C31.274 23.6464 31.259 24.0881 31.1898 25.5586C31.1253 26.9187 30.89 27.6568 30.6922 28.148C30.4303 28.7989 30.1167 29.2625 29.611 29.7504C29.1054 30.2386 28.6253 30.5408 27.9508 30.7937C27.4421 30.9855 26.677 31.2122 25.2683 31.2743C23.7453 31.3412 23.2878 31.3557 19.4303 31.3557C15.5724 31.3557 15.1152 31.3412 13.5922 31.2743C12.1835 31.2116 11.419 30.9843 10.9094 30.7934C10.2352 30.5406 9.75363 30.2383 9.24796 29.7501C8.7423 29.2619 8.42926 28.7981 8.1668 28.1468C7.96905 27.6557 7.73337 26.9175 7.66926 25.5575C7.60003 24.087 7.58618 23.6452 7.58618 19.9202C7.58618 16.1951 7.60003 15.7557 7.66926 14.2852C7.73367 12.9252 7.96905 12.187 8.1668 11.6953C8.42866 11.0443 8.7423 10.5794 9.24796 10.0911C9.75363 9.60291 10.2352 9.30068 10.9094 9.04726C11.4187 8.85546 12.1835 8.62878 13.5922 8.5663C14.925 8.50818 15.4415 8.49074 18.1342 8.48784V8.49132ZM27.1423 10.8075C26.7994 10.8075 26.4642 10.9057 26.179 11.0896C25.8939 11.2736 25.6717 11.5351 25.5405 11.841C25.4093 12.1469 25.375 12.4835 25.4419 12.8082C25.5089 13.1329 25.6741 13.4312 25.9166 13.6653C26.1591 13.8993 26.4681 14.0587 26.8044 14.1232C27.1408 14.1878 27.4894 14.1545 27.8062 14.0277C28.123 13.901 28.3937 13.6863 28.5841 13.411C28.7746 13.1356 28.8761 12.8119 28.876 12.4808C28.876 11.5567 28.0995 10.8069 27.1423 10.8069V10.8075ZM19.4303 12.7633C15.3328 12.7633 12.0108 15.9708 12.0108 19.9269C12.0108 23.883 15.3328 27.089 19.4303 27.089C23.5277 27.089 26.8488 23.883 26.8488 19.9269C26.8488 15.9708 23.5277 12.7633 19.4303 12.7633ZM19.4303 15.2771C22.0898 15.2771 24.2461 17.3587 24.2461 19.9269C24.2461 22.4947 22.0898 24.5766 19.4303 24.5766C16.7704 24.5766 14.6144 22.4947 14.6144 19.9269C14.6144 17.3587 16.7704 15.2771 19.4303 15.2771Z" fill="white"></path>
<defs>
<radialGradient id="paint0_radial_2308_3149" cx="0" cy="0" r="1" gradientUnits="userSpaceOnUse" gradientTransform="translate(10.5866 42.9249) rotate(-90) scale(39.4995 36.7376)">
<stop stop-color="#FFDD55"></stop>
<stop offset="0.1" stop-color="#FFDD55"></stop>
<stop offset="0.5" stop-color="#FF543E"></stop>
<stop offset="1" stop-color="#C837AB"></stop>
</radialGradient>
<radialGradient id="paint1_radial_2308_3149" cx="0" cy="0" r="1" gradientUnits="userSpaceOnUse" gradientTransform="translate(-6.67596 2.8711) rotate(78.6806) scale(17.6564 72.7805)">
<stop stop-color="#3771C8"></stop>
<stop offset="0.128" stop-color="#3771C8"></stop>
<stop offset="1" stop-color="#6600FF" stop-opacity="0"></stop>
</radialGradient>
</defs>
</svg>