<svg width="39" height="44" viewBox="0 0 39 44" fill="none" xmlns="http://www.w3.org/2000/svg">
<path d="M26.6739 43.6427C26.5033 43.6427 26.3327 43.6427 26.1621 43.6427C24.331 43.3128 22.5114 42.983 20.6803 42.6646C13.9361 41.4932 7.19183 40.3331 0.447594 39.173C0.0495369 39.1048 -0.0414479 38.9456 0.0154175 38.5816C0.538579 34.6352 1.03899 30.6887 1.55078 26.7423C2.14218 22.2272 2.73358 17.7234 3.31361 13.2083C3.40459 12.4804 3.72304 12.0596 4.43954 11.8549C5.77019 11.4682 7.08947 11.0361 8.42012 10.6266C8.73856 10.5356 8.89779 10.3764 8.96603 10.0239C9.59155 7.11235 10.8085 4.48517 12.8329 2.2788C13.72 1.31209 14.7549 0.550088 16.0401 0.197522C17.4845 -0.200535 18.8265 -0.0413102 19.941 1.08462C20.0889 1.23247 20.2481 1.24385 20.4415 1.25522C21.4423 1.27797 22.3294 1.59641 23.0914 2.26742C23.7965 2.89294 24.2856 3.66631 24.6609 4.51929C25.0703 5.45188 25.0703 5.45188 26.037 5.16756C26.617 4.99696 26.6739 5.03108 26.6739 5.63385C26.6739 18.3035 26.6739 30.9731 26.6739 43.6427ZM13.1172 36.0682C14.482 36.0682 15.4714 35.8407 16.404 35.3403C19.8159 33.5093 20.0775 28.96 18.963 26.6399C18.3374 25.3434 17.2911 24.4449 16.1311 23.6488C15.4032 23.1484 14.6412 22.7162 13.9474 22.1703C13.3674 21.6926 12.9807 21.124 13.1286 20.3279C13.2764 19.509 13.811 19.02 14.5843 18.7584C14.8118 18.6788 15.0506 18.6333 15.2895 18.5878C16.4381 18.3831 17.5527 18.5764 18.6331 18.9404C18.963 19.0541 19.0767 18.9745 19.1563 18.656C19.4975 17.314 19.8728 15.972 20.2254 14.63C20.3618 14.1182 20.3505 14.084 19.8387 13.9589C18.2465 13.5609 16.6542 13.6178 15.0847 13.9931C12.2528 14.6641 10.1033 16.2222 9.14799 19.0541C8.10167 22.1476 8.60209 24.9453 11.5705 26.8788C12.0822 27.2086 12.5713 27.5725 13.0262 27.9819C13.4356 28.3459 13.7655 28.7667 13.9247 29.3012C14.3569 30.7456 13.3447 31.9057 11.8548 31.7237C10.6379 31.5645 9.58017 31.0413 8.56797 30.4044C8.12442 30.1315 8.10167 30.1315 7.97657 30.6546C7.77185 31.5417 7.58988 32.4288 7.35105 33.3045C7.22595 33.7481 7.35105 34.0097 7.69224 34.2713C9.30722 35.4654 11.1155 36.0682 13.1172 36.0682ZM17.3252 1.52817C17.0978 1.52817 16.8703 1.55092 16.6542 1.59641C15.6306 1.83525 14.8232 2.41527 14.118 3.15452C12.3666 4.97421 11.2861 7.15784 10.6037 9.58031C10.49 9.97837 10.6606 9.94425 10.9336 9.85327C11.832 9.56894 12.7419 9.28461 13.6517 9.01165C13.9474 8.92067 14.0953 8.78419 14.1635 8.46575C14.3455 7.6014 14.6298 6.77116 14.9938 5.97505C15.642 4.54204 16.4836 3.23413 17.746 2.25605C17.9394 2.1082 18.3488 2.01721 18.2578 1.78975C18.1555 1.52817 17.746 1.56229 17.4503 1.53955C17.4048 1.52817 17.3707 1.52817 17.3252 1.52817ZM20.1116 6.5437C20.032 5.59973 19.9979 4.80362 19.7704 4.04162C19.4406 2.92706 19.5316 2.72235 18.4512 3.63219C17.1091 4.75813 16.3926 6.30486 15.8581 7.94259C15.7444 8.29515 15.9377 8.29515 16.1879 8.21554C17.2911 7.87435 18.3943 7.51041 19.5202 7.19196C19.9752 7.06686 20.2026 6.87352 20.1116 6.5437ZM21.8745 6.46409C22.3066 6.32761 22.7729 6.16839 23.2506 6.04328C23.5122 5.97505 23.5463 5.82719 23.4553 5.59973C23.2051 4.95147 22.9094 4.32595 22.4545 3.79141C22.136 3.4161 21.7607 3.13178 21.3058 2.94981C21.2376 2.92706 21.158 2.90431 21.1011 2.92706C20.9987 2.98393 21.067 3.08628 21.0897 3.15452C21.4082 4.14398 21.5333 5.16756 21.5901 6.20251C21.6015 6.33898 21.6243 6.47546 21.8745 6.46409Z" fill="#95BF47"></path>
<path d="M27.4216 24.5359C27.4216 18.4058 27.4216 12.2757 27.4216 6.14565C27.4216 5.96368 27.3192 5.67935 27.5239 5.59974C27.7287 5.52013 27.8424 5.78171 27.9789 5.91819C28.5589 6.47547 29.1503 7.03275 29.7076 7.61278C29.9578 7.86298 30.2194 7.99946 30.5719 7.99946C31.3794 8.01083 32.1869 8.01083 32.9944 8.03358C33.5972 8.04495 33.745 8.18143 33.8246 8.76146C34.5525 13.7201 35.2918 18.6902 36.0196 23.6488C36.7703 28.7326 37.5209 33.8277 38.2601 38.9115C38.3284 39.3778 38.3966 39.8327 38.4762 40.299C38.5445 40.6743 38.4535 40.8563 38.0554 40.9586C34.6776 41.7889 31.3112 42.6305 27.9447 43.4721C27.4443 43.5972 27.3988 43.5631 27.3988 43.0058C27.3988 38.3087 27.3988 33.6116 27.3988 28.9145C27.4216 27.4588 27.4216 26.003 27.4216 24.5359Z" fill="#5E8E3E"></path>
</svg>